<svg xmlns="http://www.w3.org/2000/svg" version="1.0" preserveAspectRatio="xMidYMid meet" viewBox="284 0.1 995.84 782.93">
<g transform="translate(0.000000,924.000000) scale(0.100000,-0.100000)" fill="#fff" stroke="none">
<path d="M11450 9216 c-163 -42 -265 -103 -408 -240 -317 -306 -594 -887 -817 -1715 -76 -281 -189 -810 -183 -853 2 -16 20 5 72 86 270 423 536 743 1215 1466 373 397 371 394 476 520 304 366 338 564 114 673 -70 35 -276 87 -337 86 -26 0 -85 -11 -132 -23z"/>
<path d="M7860 9185 c-132 -32 -249 -105 -367 -228 -159 -165 -190 -320 -102 -501 72 -148 210 -295 589 -627 516 -452 712 -652 957 -977 228 -302 423 -683 529 -1030 49 -163 72 -262 104 -447 18 -101 30 -151 33 -135 21 92 10 725 -18 1020 -109 1145 -480 2141 -984 2640 -154 153 -310 249 -463 285 -77 18 -204 18 -278 0z"/>
<path d="M12195 6809 c-529 -76 -1236 -783 -1689 -1688 -89 -177 -236 -520 -236 -549 0 -4 35 45 77 108 112 169 171 240 322 391 207 206 399 342 676 479 210 103 324 147 755 290 236 78 391 135 452 166 121 63 195 135 226 220 27 76 27 98 1 182 -73 228 -219 372 -409 402 -73 11 -91 11 -175 -1z"/>
<path d="M7575 6187 c-117 -39 -203 -110 -226 -185 -50 -168 302 -340 815 -397 140 -16 405 -19 471 -6 l40 8 -137 135 c-214 213 -421 354 -620 425 -89 31 -276 42 -343 20z"/>
<path d="M4895 4826 c-362 -76 -886 -306 -1485 -651 -129 -74 -310 -174 -402 -221 -93 -47 -168 -92 -168 -98 0 -12 2168 -2163 2194 -2177 6 -4 99 -16 206 -28 332 -37 659 -83 1220 -171 482 -75 636 -84 942 -55 890 85 1864 489 2608 1081 141 113 649 611 855 839 417 462 699 865 775 1110 27 88 29 178 6 223 -67 128 -357 47 -676 -188 -90 -66 -258 -209 -300 -255 -59 -65 -381 -308 -600 -455 -365 -244 -696 -408 -1002 -496 -438 -126 -799 -135 -1578 -38 -113 14 -263 36 -335 50 -380 73 -800 207 -996 316 -90 51 -111 72 -103 106 12 49 43 88 92 115 85 46 152 59 352 64 192 6 353 -2 770 -38 342 -29 770 -36 917 -15 261 36 530 115 739 215 320 154 471 323 374 419 -73 73 -248 93 -591 68 -195 -14 -264 -15 -414 -6 -254 15 -578 49 -1040 110 -1182 155 -1649 200 -2060 199 -159 0 -208 -4 -300 -23z"/>
</g>
</svg>
